<mxfile host="app.diagrams.net" agent="Mozilla/5.0 (X11; Linux x86_64) AppleWebKit/537.36 (KHTML, like Gecko) Chrome/126.0.0.0 Safari/537.36" version="24.7.7">
  <diagram name="Page-1" id="a0Wq0jLBWh8m1qwdNBfL">
    <mxGraphModel dx="2046" dy="1805" grid="1" gridSize="10" guides="1" tooltips="1" connect="1" arrows="1" fold="1" page="1" pageScale="1" pageWidth="850" pageHeight="1100" math="0" shadow="0">
      <root>
        <mxCell id="0" />
        <mxCell id="1" parent="0" />
        <mxCell id="R8go_w0PvZm3quDp3MKC-1" style="edgeStyle=orthogonalEdgeStyle;rounded=0;orthogonalLoop=1;jettySize=auto;html=1;exitX=1;exitY=0.5;exitDx=0;exitDy=0;entryX=0;entryY=0.5;entryDx=0;entryDy=0;strokeWidth=4;" edge="1" parent="1" source="R8go_w0PvZm3quDp3MKC-3" target="R8go_w0PvZm3quDp3MKC-10">
          <mxGeometry relative="1" as="geometry" />
        </mxCell>
        <mxCell id="R8go_w0PvZm3quDp3MKC-2" style="edgeStyle=orthogonalEdgeStyle;rounded=0;orthogonalLoop=1;jettySize=auto;html=1;exitX=0.5;exitY=0;exitDx=0;exitDy=0;entryX=0.5;entryY=1;entryDx=0;entryDy=0;strokeWidth=4;" edge="1" parent="1" source="R8go_w0PvZm3quDp3MKC-3" target="R8go_w0PvZm3quDp3MKC-57">
          <mxGeometry relative="1" as="geometry" />
        </mxCell>
        <mxCell id="R8go_w0PvZm3quDp3MKC-3" value="" style="rounded=1;whiteSpace=wrap;html=1;fillColor=#f8cecc;strokeColor=#b85450;strokeWidth=4;" vertex="1" parent="1">
          <mxGeometry x="240" y="160" width="80" height="280" as="geometry" />
        </mxCell>
        <mxCell id="R8go_w0PvZm3quDp3MKC-4" value="" style="ellipse;whiteSpace=wrap;html=1;aspect=fixed;fillColor=#d80073;strokeColor=#A50040;strokeWidth=4;fontColor=#ffffff;" vertex="1" parent="1">
          <mxGeometry x="255" y="170" width="50" height="50" as="geometry" />
        </mxCell>
        <mxCell id="R8go_w0PvZm3quDp3MKC-5" value="" style="ellipse;whiteSpace=wrap;html=1;aspect=fixed;fillColor=#d80073;strokeColor=#A50040;strokeWidth=4;fontColor=#ffffff;" vertex="1" parent="1">
          <mxGeometry x="255" y="240" width="50" height="50" as="geometry" />
        </mxCell>
        <mxCell id="R8go_w0PvZm3quDp3MKC-6" value="" style="ellipse;whiteSpace=wrap;html=1;aspect=fixed;fillColor=#d80073;strokeColor=#A50040;strokeWidth=4;fontColor=#ffffff;" vertex="1" parent="1">
          <mxGeometry x="255" y="310" width="50" height="50" as="geometry" />
        </mxCell>
        <mxCell id="R8go_w0PvZm3quDp3MKC-7" value="" style="ellipse;whiteSpace=wrap;html=1;aspect=fixed;fillColor=#d80073;strokeColor=#A50040;strokeWidth=4;fontColor=#ffffff;" vertex="1" parent="1">
          <mxGeometry x="255" y="380" width="50" height="50" as="geometry" />
        </mxCell>
        <mxCell id="R8go_w0PvZm3quDp3MKC-8" style="edgeStyle=orthogonalEdgeStyle;rounded=0;orthogonalLoop=1;jettySize=auto;html=1;exitX=1;exitY=0.5;exitDx=0;exitDy=0;entryX=0;entryY=0.5;entryDx=0;entryDy=0;strokeWidth=4;" edge="1" parent="1" source="R8go_w0PvZm3quDp3MKC-10" target="R8go_w0PvZm3quDp3MKC-28">
          <mxGeometry relative="1" as="geometry" />
        </mxCell>
        <mxCell id="R8go_w0PvZm3quDp3MKC-9" style="edgeStyle=orthogonalEdgeStyle;rounded=0;orthogonalLoop=1;jettySize=auto;html=1;exitX=0.5;exitY=0;exitDx=0;exitDy=0;strokeWidth=4;" edge="1" parent="1" source="R8go_w0PvZm3quDp3MKC-10" target="R8go_w0PvZm3quDp3MKC-58">
          <mxGeometry relative="1" as="geometry" />
        </mxCell>
        <mxCell id="R8go_w0PvZm3quDp3MKC-10" value="" style="rounded=1;whiteSpace=wrap;html=1;fillColor=#f8cecc;strokeColor=#b85450;strokeWidth=4;" vertex="1" parent="1">
          <mxGeometry x="400" y="160" width="80" height="280" as="geometry" />
        </mxCell>
        <mxCell id="R8go_w0PvZm3quDp3MKC-11" value="" style="ellipse;whiteSpace=wrap;html=1;aspect=fixed;fillColor=#d80073;strokeColor=#A50040;strokeWidth=4;fontColor=#ffffff;" vertex="1" parent="1">
          <mxGeometry x="415" y="170" width="50" height="50" as="geometry" />
        </mxCell>
        <mxCell id="R8go_w0PvZm3quDp3MKC-12" value="" style="ellipse;whiteSpace=wrap;html=1;aspect=fixed;fillColor=#d80073;strokeColor=#A50040;strokeWidth=4;fontColor=#ffffff;" vertex="1" parent="1">
          <mxGeometry x="415" y="240" width="50" height="50" as="geometry" />
        </mxCell>
        <mxCell id="R8go_w0PvZm3quDp3MKC-13" value="" style="ellipse;whiteSpace=wrap;html=1;aspect=fixed;fillColor=#d80073;strokeColor=#A50040;strokeWidth=4;fontColor=#ffffff;" vertex="1" parent="1">
          <mxGeometry x="415" y="310" width="50" height="50" as="geometry" />
        </mxCell>
        <mxCell id="R8go_w0PvZm3quDp3MKC-14" value="" style="ellipse;whiteSpace=wrap;html=1;aspect=fixed;fillColor=#d80073;strokeColor=#A50040;strokeWidth=4;fontColor=#ffffff;" vertex="1" parent="1">
          <mxGeometry x="415" y="380" width="50" height="50" as="geometry" />
        </mxCell>
        <mxCell id="R8go_w0PvZm3quDp3MKC-15" style="edgeStyle=orthogonalEdgeStyle;rounded=0;orthogonalLoop=1;jettySize=auto;html=1;entryX=0.5;entryY=1;entryDx=0;entryDy=0;strokeWidth=4;" edge="1" parent="1" source="R8go_w0PvZm3quDp3MKC-16" target="R8go_w0PvZm3quDp3MKC-3">
          <mxGeometry relative="1" as="geometry" />
        </mxCell>
        <mxCell id="R8go_w0PvZm3quDp3MKC-16" value="sem" style="text;html=1;align=center;verticalAlign=middle;whiteSpace=wrap;rounded=0;fontStyle=1;fontSize=45;" vertex="1" parent="1">
          <mxGeometry x="250" y="520" width="60" height="30" as="geometry" />
        </mxCell>
        <mxCell id="R8go_w0PvZm3quDp3MKC-17" style="edgeStyle=orthogonalEdgeStyle;rounded=0;orthogonalLoop=1;jettySize=auto;html=1;entryX=0.5;entryY=1;entryDx=0;entryDy=0;strokeWidth=4;" edge="1" parent="1" source="R8go_w0PvZm3quDp3MKC-18" target="R8go_w0PvZm3quDp3MKC-10">
          <mxGeometry relative="1" as="geometry" />
        </mxCell>
        <mxCell id="R8go_w0PvZm3quDp3MKC-18" value="palavras" style="text;html=1;align=center;verticalAlign=middle;whiteSpace=wrap;rounded=0;fontStyle=1;fontSize=45;" vertex="1" parent="1">
          <mxGeometry x="410" y="520" width="60" height="30" as="geometry" />
        </mxCell>
        <mxCell id="R8go_w0PvZm3quDp3MKC-19" style="edgeStyle=orthogonalEdgeStyle;rounded=0;orthogonalLoop=1;jettySize=auto;html=1;exitX=0.5;exitY=0;exitDx=0;exitDy=0;strokeWidth=4;" edge="1" parent="1" source="R8go_w0PvZm3quDp3MKC-21" target="R8go_w0PvZm3quDp3MKC-47">
          <mxGeometry relative="1" as="geometry" />
        </mxCell>
        <mxCell id="R8go_w0PvZm3quDp3MKC-20" style="edgeStyle=orthogonalEdgeStyle;rounded=0;orthogonalLoop=1;jettySize=auto;html=1;exitX=1;exitY=0.5;exitDx=0;exitDy=0;entryX=0;entryY=0.5;entryDx=0;entryDy=0;strokeWidth=4;" edge="1" parent="1" source="R8go_w0PvZm3quDp3MKC-21">
          <mxGeometry relative="1" as="geometry">
            <mxPoint x="880" y="300" as="targetPoint" />
          </mxGeometry>
        </mxCell>
        <mxCell id="R8go_w0PvZm3quDp3MKC-21" value="" style="rounded=1;whiteSpace=wrap;html=1;fillColor=#d5e8d4;strokeColor=#82b366;strokeWidth=4;" vertex="1" parent="1">
          <mxGeometry x="720" y="160" width="80" height="280" as="geometry" />
        </mxCell>
        <mxCell id="R8go_w0PvZm3quDp3MKC-22" value="" style="ellipse;whiteSpace=wrap;html=1;aspect=fixed;fillColor=#60a917;strokeColor=#2D7600;strokeWidth=4;fontColor=#ffffff;" vertex="1" parent="1">
          <mxGeometry x="735" y="170" width="50" height="50" as="geometry" />
        </mxCell>
        <mxCell id="R8go_w0PvZm3quDp3MKC-23" value="" style="ellipse;whiteSpace=wrap;html=1;aspect=fixed;fillColor=#60a917;strokeColor=#2D7600;strokeWidth=4;fontColor=#ffffff;" vertex="1" parent="1">
          <mxGeometry x="735" y="240" width="50" height="50" as="geometry" />
        </mxCell>
        <mxCell id="R8go_w0PvZm3quDp3MKC-24" value="" style="ellipse;whiteSpace=wrap;html=1;aspect=fixed;fillColor=#60a917;strokeColor=#2D7600;strokeWidth=4;fontColor=#ffffff;" vertex="1" parent="1">
          <mxGeometry x="735" y="310" width="50" height="50" as="geometry" />
        </mxCell>
        <mxCell id="R8go_w0PvZm3quDp3MKC-25" value="" style="ellipse;whiteSpace=wrap;html=1;aspect=fixed;fillColor=#60a917;strokeColor=#2D7600;strokeWidth=4;fontColor=#ffffff;" vertex="1" parent="1">
          <mxGeometry x="735" y="380" width="50" height="50" as="geometry" />
        </mxCell>
        <mxCell id="R8go_w0PvZm3quDp3MKC-26" value="&amp;lt;sos&amp;gt;" style="text;html=1;align=center;verticalAlign=middle;whiteSpace=wrap;rounded=0;fontStyle=1;fontSize=45;" vertex="1" parent="1">
          <mxGeometry x="730" y="520" width="60" height="30" as="geometry" />
        </mxCell>
        <mxCell id="R8go_w0PvZm3quDp3MKC-27" style="edgeStyle=orthogonalEdgeStyle;rounded=0;orthogonalLoop=1;jettySize=auto;html=1;exitX=1;exitY=0.5;exitDx=0;exitDy=0;entryX=0;entryY=0.5;entryDx=0;entryDy=0;strokeWidth=4;" edge="1" parent="1" source="R8go_w0PvZm3quDp3MKC-28" target="R8go_w0PvZm3quDp3MKC-21">
          <mxGeometry relative="1" as="geometry" />
        </mxCell>
        <mxCell id="R8go_w0PvZm3quDp3MKC-28" value="" style="rounded=0;whiteSpace=wrap;html=1;fillColor=#6a00ff;fontColor=#ffffff;strokeColor=#000000;strokeWidth=4;" vertex="1" parent="1">
          <mxGeometry x="560" y="195" width="80" height="210" as="geometry" />
        </mxCell>
        <mxCell id="R8go_w0PvZm3quDp3MKC-29" style="edgeStyle=orthogonalEdgeStyle;rounded=0;orthogonalLoop=1;jettySize=auto;html=1;exitX=1;exitY=0.5;exitDx=0;exitDy=0;entryX=0;entryY=0.5;entryDx=0;entryDy=0;strokeWidth=4;" edge="1" parent="1" source="R8go_w0PvZm3quDp3MKC-31" target="R8go_w0PvZm3quDp3MKC-38">
          <mxGeometry relative="1" as="geometry" />
        </mxCell>
        <mxCell id="R8go_w0PvZm3quDp3MKC-30" style="edgeStyle=orthogonalEdgeStyle;rounded=0;orthogonalLoop=1;jettySize=auto;html=1;entryX=0.5;entryY=1;entryDx=0;entryDy=0;strokeWidth=4;" edge="1" parent="1" source="R8go_w0PvZm3quDp3MKC-31" target="R8go_w0PvZm3quDp3MKC-54">
          <mxGeometry relative="1" as="geometry" />
        </mxCell>
        <mxCell id="R8go_w0PvZm3quDp3MKC-31" value="" style="rounded=1;whiteSpace=wrap;html=1;fillColor=#f8cecc;strokeColor=#b85450;strokeWidth=4;" vertex="1" parent="1">
          <mxGeometry x="-80" y="160" width="80" height="280" as="geometry" />
        </mxCell>
        <mxCell id="R8go_w0PvZm3quDp3MKC-32" value="" style="ellipse;whiteSpace=wrap;html=1;aspect=fixed;fillColor=#d80073;strokeColor=#A50040;strokeWidth=4;fontColor=#ffffff;" vertex="1" parent="1">
          <mxGeometry x="-65" y="170" width="50" height="50" as="geometry" />
        </mxCell>
        <mxCell id="R8go_w0PvZm3quDp3MKC-33" value="" style="ellipse;whiteSpace=wrap;html=1;aspect=fixed;fillColor=#d80073;strokeColor=#A50040;strokeWidth=4;fontColor=#ffffff;" vertex="1" parent="1">
          <mxGeometry x="-65" y="240" width="50" height="50" as="geometry" />
        </mxCell>
        <mxCell id="R8go_w0PvZm3quDp3MKC-34" value="" style="ellipse;whiteSpace=wrap;html=1;aspect=fixed;fillColor=#d80073;strokeColor=#A50040;strokeWidth=4;fontColor=#ffffff;" vertex="1" parent="1">
          <mxGeometry x="-65" y="310" width="50" height="50" as="geometry" />
        </mxCell>
        <mxCell id="R8go_w0PvZm3quDp3MKC-35" value="" style="ellipse;whiteSpace=wrap;html=1;aspect=fixed;fillColor=#d80073;strokeColor=#A50040;strokeWidth=4;fontColor=#ffffff;" vertex="1" parent="1">
          <mxGeometry x="-65" y="380" width="50" height="50" as="geometry" />
        </mxCell>
        <mxCell id="R8go_w0PvZm3quDp3MKC-36" style="edgeStyle=orthogonalEdgeStyle;rounded=0;orthogonalLoop=1;jettySize=auto;html=1;exitX=1;exitY=0.5;exitDx=0;exitDy=0;entryX=0;entryY=0.5;entryDx=0;entryDy=0;strokeWidth=4;" edge="1" parent="1" source="R8go_w0PvZm3quDp3MKC-38" target="R8go_w0PvZm3quDp3MKC-3">
          <mxGeometry relative="1" as="geometry" />
        </mxCell>
        <mxCell id="R8go_w0PvZm3quDp3MKC-37" style="edgeStyle=orthogonalEdgeStyle;rounded=0;orthogonalLoop=1;jettySize=auto;html=1;exitX=0.5;exitY=0;exitDx=0;exitDy=0;entryX=0.5;entryY=1;entryDx=0;entryDy=0;strokeWidth=4;" edge="1" parent="1" source="R8go_w0PvZm3quDp3MKC-38" target="R8go_w0PvZm3quDp3MKC-56">
          <mxGeometry relative="1" as="geometry" />
        </mxCell>
        <mxCell id="R8go_w0PvZm3quDp3MKC-38" value="" style="rounded=1;whiteSpace=wrap;html=1;fillColor=#f8cecc;strokeColor=#b85450;strokeWidth=4;" vertex="1" parent="1">
          <mxGeometry x="80" y="160" width="80" height="280" as="geometry" />
        </mxCell>
        <mxCell id="R8go_w0PvZm3quDp3MKC-39" value="" style="ellipse;whiteSpace=wrap;html=1;aspect=fixed;fillColor=#d80073;strokeColor=#A50040;strokeWidth=4;fontColor=#ffffff;" vertex="1" parent="1">
          <mxGeometry x="95" y="170" width="50" height="50" as="geometry" />
        </mxCell>
        <mxCell id="R8go_w0PvZm3quDp3MKC-40" value="" style="ellipse;whiteSpace=wrap;html=1;aspect=fixed;fillColor=#d80073;strokeColor=#A50040;strokeWidth=4;fontColor=#ffffff;" vertex="1" parent="1">
          <mxGeometry x="95" y="240" width="50" height="50" as="geometry" />
        </mxCell>
        <mxCell id="R8go_w0PvZm3quDp3MKC-41" value="" style="ellipse;whiteSpace=wrap;html=1;aspect=fixed;fillColor=#d80073;strokeColor=#A50040;strokeWidth=4;fontColor=#ffffff;" vertex="1" parent="1">
          <mxGeometry x="95" y="310" width="50" height="50" as="geometry" />
        </mxCell>
        <mxCell id="R8go_w0PvZm3quDp3MKC-42" value="" style="ellipse;whiteSpace=wrap;html=1;aspect=fixed;fillColor=#d80073;strokeColor=#A50040;strokeWidth=4;fontColor=#ffffff;" vertex="1" parent="1">
          <mxGeometry x="95" y="380" width="50" height="50" as="geometry" />
        </mxCell>
        <mxCell id="R8go_w0PvZm3quDp3MKC-43" style="edgeStyle=orthogonalEdgeStyle;rounded=0;orthogonalLoop=1;jettySize=auto;html=1;entryX=0.5;entryY=1;entryDx=0;entryDy=0;strokeWidth=4;" edge="1" parent="1" source="R8go_w0PvZm3quDp3MKC-44" target="R8go_w0PvZm3quDp3MKC-31">
          <mxGeometry relative="1" as="geometry" />
        </mxCell>
        <mxCell id="R8go_w0PvZm3quDp3MKC-44" value="Eu" style="text;html=1;align=center;verticalAlign=middle;whiteSpace=wrap;rounded=0;fontStyle=1;fontSize=45;" vertex="1" parent="1">
          <mxGeometry x="-70" y="520" width="60" height="30" as="geometry" />
        </mxCell>
        <mxCell id="R8go_w0PvZm3quDp3MKC-45" style="edgeStyle=orthogonalEdgeStyle;rounded=0;orthogonalLoop=1;jettySize=auto;html=1;entryX=0.5;entryY=1;entryDx=0;entryDy=0;strokeWidth=4;" edge="1" parent="1" source="R8go_w0PvZm3quDp3MKC-46" target="R8go_w0PvZm3quDp3MKC-38">
          <mxGeometry relative="1" as="geometry" />
        </mxCell>
        <mxCell id="R8go_w0PvZm3quDp3MKC-46" value="estou" style="text;html=1;align=center;verticalAlign=middle;whiteSpace=wrap;rounded=0;fontStyle=1;fontSize=45;" vertex="1" parent="1">
          <mxGeometry x="90" y="520" width="60" height="30" as="geometry" />
        </mxCell>
        <mxCell id="R8go_w0PvZm3quDp3MKC-47" value="I" style="text;html=1;align=center;verticalAlign=middle;whiteSpace=wrap;rounded=0;fontStyle=1;fontSize=45;" vertex="1" parent="1">
          <mxGeometry x="730" y="70" width="60" height="30" as="geometry" />
        </mxCell>
        <mxCell id="R8go_w0PvZm3quDp3MKC-48" value="" style="shape=curlyBracket;whiteSpace=wrap;html=1;rounded=1;labelPosition=left;verticalLabelPosition=middle;align=right;verticalAlign=middle;rotation=-90;strokeWidth=4;" vertex="1" parent="1">
          <mxGeometry x="200" y="305" width="20" height="590" as="geometry" />
        </mxCell>
        <mxCell id="R8go_w0PvZm3quDp3MKC-49" value="Sentença de Entrada&lt;div style=&quot;font-size: 28px;&quot;&gt;Idioma de Origem&lt;/div&gt;" style="text;html=1;align=center;verticalAlign=middle;whiteSpace=wrap;rounded=0;fontSize=28;" vertex="1" parent="1">
          <mxGeometry x="50" y="630" width="320" height="30" as="geometry" />
        </mxCell>
        <mxCell id="R8go_w0PvZm3quDp3MKC-50" value="" style="shape=curlyBracket;whiteSpace=wrap;html=1;rounded=1;labelPosition=left;verticalLabelPosition=middle;align=right;verticalAlign=middle;rotation=90;strokeWidth=4;" vertex="1" parent="1">
          <mxGeometry x="1000" y="-320" width="20" height="590" as="geometry" />
        </mxCell>
        <mxCell id="R8go_w0PvZm3quDp3MKC-51" value="Sentença de Saída&lt;div style=&quot;font-size: 28px;&quot;&gt;Idioma de Destino&lt;/div&gt;" style="text;html=1;align=center;verticalAlign=middle;whiteSpace=wrap;rounded=0;fontSize=28;" vertex="1" parent="1">
          <mxGeometry x="850" y="-100" width="320" height="30" as="geometry" />
        </mxCell>
        <mxCell id="R8go_w0PvZm3quDp3MKC-52" value="Encoder" style="text;html=1;align=center;verticalAlign=middle;whiteSpace=wrap;rounded=0;fontColor=#FF0080;fontStyle=1;fontSize=45;" vertex="1" parent="1">
          <mxGeometry x="-240" y="285" width="60" height="30" as="geometry" />
        </mxCell>
        <mxCell id="R8go_w0PvZm3quDp3MKC-53" value="Decoder" style="text;html=1;align=center;verticalAlign=middle;whiteSpace=wrap;rounded=0;fontColor=#4D9900;fontStyle=1;fontSize=45;" vertex="1" parent="1">
          <mxGeometry x="970" y="610" width="60" height="30" as="geometry" />
        </mxCell>
        <mxCell id="R8go_w0PvZm3quDp3MKC-54" value="" style="ellipse;whiteSpace=wrap;html=1;aspect=fixed;fillColor=#1ba1e2;strokeColor=#006EAF;strokeWidth=4;fontColor=#ffffff;" vertex="1" parent="1">
          <mxGeometry x="-65" y="-80" width="50" height="50" as="geometry" />
        </mxCell>
        <mxCell id="R8go_w0PvZm3quDp3MKC-55" value="" style="endArrow=classic;html=1;rounded=0;exitX=0.5;exitY=0;exitDx=0;exitDy=0;entryX=0.798;entryY=1.024;entryDx=0;entryDy=0;entryPerimeter=0;strokeWidth=4;" edge="1" parent="1" source="R8go_w0PvZm3quDp3MKC-21" target="R8go_w0PvZm3quDp3MKC-54">
          <mxGeometry width="50" height="50" relative="1" as="geometry">
            <mxPoint x="280" y="230" as="sourcePoint" />
            <mxPoint x="330" y="180" as="targetPoint" />
          </mxGeometry>
        </mxCell>
        <mxCell id="R8go_w0PvZm3quDp3MKC-56" value="" style="ellipse;whiteSpace=wrap;html=1;aspect=fixed;fillColor=#1ba1e2;strokeColor=#006EAF;strokeWidth=4;fontColor=#ffffff;" vertex="1" parent="1">
          <mxGeometry x="95" y="-80" width="50" height="50" as="geometry" />
        </mxCell>
        <mxCell id="R8go_w0PvZm3quDp3MKC-57" value="" style="ellipse;whiteSpace=wrap;html=1;aspect=fixed;fillColor=#1ba1e2;strokeColor=#006EAF;strokeWidth=4;fontColor=#ffffff;" vertex="1" parent="1">
          <mxGeometry x="255" y="-80" width="50" height="50" as="geometry" />
        </mxCell>
        <mxCell id="R8go_w0PvZm3quDp3MKC-58" value="" style="ellipse;whiteSpace=wrap;html=1;aspect=fixed;fillColor=#1ba1e2;strokeColor=#006EAF;strokeWidth=4;fontColor=#ffffff;" vertex="1" parent="1">
          <mxGeometry x="415" y="-80" width="50" height="50" as="geometry" />
        </mxCell>
        <mxCell id="R8go_w0PvZm3quDp3MKC-59" value="" style="endArrow=classic;html=1;rounded=0;entryX=1;entryY=1;entryDx=0;entryDy=0;strokeWidth=4;" edge="1" parent="1" target="R8go_w0PvZm3quDp3MKC-56">
          <mxGeometry width="50" height="50" relative="1" as="geometry">
            <mxPoint x="760" y="160" as="sourcePoint" />
            <mxPoint x="-15" y="-19" as="targetPoint" />
          </mxGeometry>
        </mxCell>
        <mxCell id="R8go_w0PvZm3quDp3MKC-60" value="" style="endArrow=classic;html=1;rounded=0;exitX=0.5;exitY=0;exitDx=0;exitDy=0;entryX=1;entryY=1;entryDx=0;entryDy=0;strokeWidth=4;" edge="1" parent="1" source="R8go_w0PvZm3quDp3MKC-21" target="R8go_w0PvZm3quDp3MKC-57">
          <mxGeometry width="50" height="50" relative="1" as="geometry">
            <mxPoint x="1080" y="160" as="sourcePoint" />
            <mxPoint x="-5" y="-9" as="targetPoint" />
          </mxGeometry>
        </mxCell>
        <mxCell id="R8go_w0PvZm3quDp3MKC-61" value="" style="endArrow=classic;html=1;rounded=0;exitX=0.5;exitY=0;exitDx=0;exitDy=0;entryX=1;entryY=1;entryDx=0;entryDy=0;strokeWidth=4;" edge="1" parent="1" source="R8go_w0PvZm3quDp3MKC-21" target="R8go_w0PvZm3quDp3MKC-58">
          <mxGeometry width="50" height="50" relative="1" as="geometry">
            <mxPoint x="1240" y="160" as="sourcePoint" />
            <mxPoint x="470" y="-30" as="targetPoint" />
          </mxGeometry>
        </mxCell>
        <mxCell id="R8go_w0PvZm3quDp3MKC-62" value="Scores&lt;div&gt;de Atenção&lt;/div&gt;" style="text;html=1;align=center;verticalAlign=middle;whiteSpace=wrap;rounded=0;fontColor=#000099;fontStyle=1;fontSize=45;" vertex="1" parent="1">
          <mxGeometry x="-290" y="-70" width="80" height="30" as="geometry" />
        </mxCell>
        <mxCell id="R8go_w0PvZm3quDp3MKC-67" value="" style="endArrow=none;html=1;rounded=0;fillColor=#dae8fc;strokeColor=#6c8ebf;strokeWidth=4;" edge="1" parent="1">
          <mxGeometry width="50" height="50" relative="1" as="geometry">
            <mxPoint x="-120" y="-200" as="sourcePoint" />
            <mxPoint x="520" y="-200" as="targetPoint" />
          </mxGeometry>
        </mxCell>
        <mxCell id="R8go_w0PvZm3quDp3MKC-68" value="" style="rounded=0;whiteSpace=wrap;html=1;fillColor=#dae8fc;strokeColor=#6c8ebf;strokeWidth=4;" vertex="1" parent="1">
          <mxGeometry x="-65" y="-360" width="50" height="160" as="geometry" />
        </mxCell>
        <mxCell id="R8go_w0PvZm3quDp3MKC-69" value="" style="rounded=0;whiteSpace=wrap;html=1;fillColor=#dae8fc;strokeColor=#6c8ebf;strokeWidth=4;" vertex="1" parent="1">
          <mxGeometry x="95" y="-240" width="50" height="40" as="geometry" />
        </mxCell>
        <mxCell id="R8go_w0PvZm3quDp3MKC-70" value="" style="rounded=0;whiteSpace=wrap;html=1;fillColor=#dae8fc;strokeColor=#6c8ebf;strokeWidth=4;" vertex="1" parent="1">
          <mxGeometry x="255" y="-220" width="50" height="20" as="geometry" />
        </mxCell>
        <mxCell id="R8go_w0PvZm3quDp3MKC-71" value="" style="rounded=0;whiteSpace=wrap;html=1;fillColor=#dae8fc;strokeColor=#6c8ebf;strokeWidth=4;" vertex="1" parent="1">
          <mxGeometry x="415" y="-210" width="50" height="10" as="geometry" />
        </mxCell>
        <mxCell id="R8go_w0PvZm3quDp3MKC-72" value="&lt;div&gt;Distribuição&lt;/div&gt;&lt;div&gt;de Atenção&lt;/div&gt;" style="text;html=1;align=center;verticalAlign=middle;whiteSpace=wrap;rounded=0;fontColor=#000099;fontStyle=1;fontSize=45;" vertex="1" parent="1">
          <mxGeometry x="-290" y="-290" width="80" height="30" as="geometry" />
        </mxCell>
        <mxCell id="R8go_w0PvZm3quDp3MKC-74" value="Opa! Neste instante de tempo do decoder, estamos focando atenção nessa palavra do encoder" style="text;html=1;align=center;verticalAlign=middle;whiteSpace=wrap;rounded=0;fontSize=24;" vertex="1" parent="1">
          <mxGeometry x="130" y="-450" width="400" height="30" as="geometry" />
        </mxCell>
        <mxCell id="R8go_w0PvZm3quDp3MKC-75" value="" style="endArrow=classic;html=1;rounded=0;exitX=0;exitY=0.5;exitDx=0;exitDy=0;entryX=1;entryY=0;entryDx=0;entryDy=0;strokeWidth=4;" edge="1" parent="1" source="R8go_w0PvZm3quDp3MKC-74" target="R8go_w0PvZm3quDp3MKC-68">
          <mxGeometry width="50" height="50" relative="1" as="geometry">
            <mxPoint x="160" y="-160" as="sourcePoint" />
            <mxPoint x="210" y="-210" as="targetPoint" />
          </mxGeometry>
        </mxCell>
      </root>
    </mxGraphModel>
  </diagram>
</mxfile>
